<svg width="24" height="22" viewBox="0 0 24 22" fill="none" xmlns="http://www.w3.org/2000/svg">
<path d="M9.66667 10.1926C10.9917 9.53945 11.6833 8.55117 11.6833 7.01289C11.6833 3.9793 9.49167 3.24023 6.9625 3.24023H0V18.4684H7.15833C9.84167 18.4684 12.3625 17.1406 12.3625 14.0469C12.3625 12.1348 11.4833 10.7211 9.66667 10.1926V10.1926ZM3.24583 5.83984H6.29167C7.4625 5.83984 8.51667 6.1793 8.51667 7.58008C8.51667 8.87344 7.69583 9.39336 6.5375 9.39336H3.24583V5.83984V5.83984ZM6.71667 15.8816H3.24583V11.6879H6.78333C8.2125 11.6879 9.11667 12.3023 9.11667 13.8621C9.11667 15.4004 8.0375 15.8816 6.71667 15.8816V15.8816ZM21.6542 5.53906H15.6667V4.03945H21.6542V5.53906V5.53906ZM24 13.1145C24 9.85313 22.15 7.1332 18.7958 7.1332C15.5375 7.1332 13.325 9.65977 13.325 12.9684C13.325 16.4016 15.4208 18.7563 18.7958 18.7563C21.35 18.7563 23.0042 17.5703 23.8 15.048H21.2083C20.9292 15.9891 19.7792 16.4875 18.8875 16.4875C17.1667 16.4875 16.2625 15.4477 16.2625 13.6816H23.975C23.9875 13.5012 24 13.3078 24 13.1145ZM16.2667 11.7738C16.3625 10.3258 17.2958 9.41914 18.7042 9.41914C20.1792 9.41914 20.9208 10.3129 21.0458 11.7738H16.2667Z" fill="#162938"/>
</svg>
