<svg width="94" height="94" viewBox="0 0 94 94" fill="none" xmlns="http://www.w3.org/2000/svg">
<path d="M94 47C94 47 76.375 14.6875 47 14.6875C17.625 14.6875 0 47 0 47C0 47 17.625 79.3125 47 79.3125C76.375 79.3125 94 47 94 47ZM6.89137 47C9.73202 42.6826 12.9993 38.6615 16.6439 34.9974C24.205 27.4245 34.545 20.5625 47 20.5625C59.455 20.5625 69.7891 27.4245 77.362 34.9974C81.0066 38.6615 84.2739 42.6826 87.1145 47C86.7738 47.5111 86.3978 48.0751 85.9689 48.692C84.0008 51.512 81.0926 55.272 77.362 59.0026C69.7891 66.5755 59.4491 73.4375 47 73.4375C34.545 73.4375 24.2109 66.5755 16.638 59.0026C12.9934 55.3384 9.72618 51.3174 6.8855 47H6.89137Z" fill="#2E2D37"/>
<path d="M47 32.3125C43.1046 32.3125 39.3688 33.8599 36.6144 36.6144C33.8599 39.3688 32.3125 43.1046 32.3125 47C32.3125 50.8954 33.8599 54.6312 36.6144 57.3856C39.3688 60.1401 43.1046 61.6875 47 61.6875C50.8954 61.6875 54.6312 60.1401 57.3856 57.3856C60.1401 54.6312 61.6875 50.8954 61.6875 47C61.6875 43.1046 60.1401 39.3688 57.3856 36.6144C54.6312 33.8599 50.8954 32.3125 47 32.3125ZM26.4375 47C26.4375 41.5465 28.6039 36.3163 32.4601 32.4601C36.3163 28.6039 41.5465 26.4375 47 26.4375C52.4535 26.4375 57.6837 28.6039 61.5399 32.4601C65.3961 36.3163 67.5625 41.5465 67.5625 47C67.5625 52.4535 65.3961 57.6837 61.5399 61.5399C57.6837 65.3961 52.4535 67.5625 47 67.5625C41.5465 67.5625 36.3163 65.3961 32.4601 61.5399C28.6039 57.6837 26.4375 52.4535 26.4375 47Z" fill="#2E2D37"/>
</svg>
