<svg width="24" height="24" viewBox="0 0 24 24" fill="none" xmlns="http://www.w3.org/2000/svg">
<path opacity="0.6" fill-rule="evenodd" clip-rule="evenodd" d="M20.4249 14.1671C19.9917 12.0088 18.7341 9.6371 16.7519 7.56646C14.7696 5.49581 12.4421 4.1224 10.2838 3.57368C8.12477 3.0248 6.14352 3.30242 4.83895 4.5196C3.53438 5.73678 3.14183 7.67393 3.57511 9.83292C4.00825 11.9912 5.26589 14.3629 7.24813 16.4335C9.23037 18.5042 11.5579 19.8776 13.7163 20.4263C15.8752 20.9752 17.8565 20.6976 19.161 19.4804C20.4656 18.2632 20.8582 16.3261 20.4249 14.1671ZM19.2041 19.5254C21.8528 17.0541 20.7746 11.6815 16.7959 7.52539C12.8172 3.36923 7.44458 2.00335 4.79588 4.47461C2.14719 6.94587 3.22539 12.3185 7.20412 16.4746C11.1828 20.6308 16.5554 21.9966 19.2041 19.5254Z" fill="#2E2D37"/>
<path d="M18.5155 12.0369C18.5155 15.4473 15.7523 18.212 12.3437 18.212C8.93509 18.212 6.17188 15.4473 6.17188 12.0369C6.17188 8.6265 8.93509 5.86182 12.3437 5.86182C15.7523 5.86182 18.5155 8.6265 18.5155 12.0369Z" fill="url(#paint0_radial)"/>
<path d="M20.0585 12.8082C20.0585 14.5134 18.6769 15.8958 16.9726 15.8958C15.2683 15.8958 13.8867 14.5134 13.8867 12.8082C13.8867 11.103 15.2683 9.7207 16.9726 9.7207C18.6769 9.7207 20.0585 11.103 20.0585 12.8082Z" fill="url(#paint1_radial)"/>
<defs>
<radialGradient id="paint0_radial" cx="0" cy="0" r="1" gradientUnits="userSpaceOnUse" gradientTransform="translate(12.3437 12.0369) rotate(86.3858) scale(5.40392 5.40108)">
<stop stop-color="#6FD0A7"/>
<stop offset="1" stop-color="#009974" stop-opacity="0"/>
</radialGradient>
<radialGradient id="paint1_radial" cx="0" cy="0" r="1" gradientUnits="userSpaceOnUse" gradientTransform="translate(16.9726 12.8082) rotate(87.3781) scale(2.87328 2.87176)">
<stop stop-color="#FC976C"/>
<stop offset="1" stop-color="#F4C79E" stop-opacity="0"/>
</radialGradient>
</defs>
</svg>
