<svg width="280" height="184" viewBox="0 0 280 184" fill="none" xmlns="http://www.w3.org/2000/svg">
<g opacity="0.6">
<path fill-rule="evenodd" clip-rule="evenodd" d="M195.582 22.7574C174.976 9.33473 146.449 0.999999 114.889 1C83.3286 1 54.8021 9.33473 34.196 22.7574C13.5807 36.186 0.999999 54.6211 1 74.8377C1 95.0542 13.5807 113.489 34.196 126.918C54.8021 140.341 83.3286 148.675 114.889 148.675C146.449 148.675 174.976 140.341 195.582 126.918C216.197 113.489 228.778 95.0542 228.778 74.8377C228.778 54.6211 216.197 36.186 195.582 22.7574ZM229.778 74.8377C229.778 33.506 178.34 -2.77355e-06 114.889 0C51.4376 2.77355e-06 -1.80667e-06 33.506 0 74.8377C1.80667e-06 116.169 51.4376 149.675 114.889 149.675C178.34 149.675 229.778 116.169 229.778 74.8377Z" fill="#2E2D37"/>
<path fill-rule="evenodd" clip-rule="evenodd" d="M220.582 39.7574C199.976 26.3347 171.449 18 139.889 18C108.329 18 79.8021 26.3347 59.196 39.7574C38.5807 53.186 26 71.6211 26 91.8377C26 112.054 38.5807 130.489 59.196 143.918C79.8021 157.341 108.329 165.675 139.889 165.675C171.449 165.675 199.976 157.341 220.582 143.918C241.197 130.489 253.778 112.054 253.778 91.8377C253.778 71.6211 241.197 53.186 220.582 39.7574ZM254.778 91.8377C254.778 50.506 203.34 17 139.889 17C76.4376 17 25 50.506 25 91.8377C25 133.169 76.4376 166.675 139.889 166.675C203.34 166.675 254.778 133.169 254.778 91.8377Z" fill="#2E2D37"/>
<path fill-rule="evenodd" clip-rule="evenodd" d="M245.582 56.7574C224.976 43.3347 196.449 35 164.889 35C133.329 35 104.802 43.3347 84.196 56.7574C63.5807 70.186 51 88.6211 51 108.838C51 129.054 63.5807 147.489 84.196 160.918C104.802 174.341 133.329 182.675 164.889 182.675C196.449 182.675 224.976 174.341 245.582 160.918C266.197 147.489 278.778 129.054 278.778 108.838C278.778 88.6211 266.197 70.186 245.582 56.7574ZM279.778 108.838C279.778 67.506 228.34 34 164.889 34C101.438 34 50 67.506 50 108.838C50 150.169 101.438 183.675 164.889 183.675C228.34 183.675 279.778 150.169 279.778 108.838Z" fill="#2E2D37"/>
</g>
</svg>
