<svg width="909" height="612" viewBox="0 0 909 612" fill="none" xmlns="http://www.w3.org/2000/svg">
<g opacity="0.6">
<path fill-rule="evenodd" clip-rule="evenodd" d="M783.587 141.656C707.115 91.8428 601.41 61 484.601 61C367.792 61 262.088 91.8428 185.616 141.656C109.134 191.475 62 260.183 62 335.93C62 411.677 109.134 480.385 185.616 530.204C262.088 580.017 367.792 610.86 484.601 610.86C601.41 610.86 707.115 580.018 783.587 530.204C860.068 480.385 907.203 411.677 907.203 335.93C907.203 260.183 860.068 191.475 783.587 141.656ZM908.203 335.93C908.203 183.538 718.55 60 484.601 60C250.653 60 61 183.538 61 335.93C61 488.322 250.653 611.86 484.601 611.86C718.55 611.86 908.203 488.322 908.203 335.93Z" fill="#2E2D37"/>
<path fill-rule="evenodd" clip-rule="evenodd" d="M753.587 111.656C677.115 61.8428 571.41 31 454.601 31C337.792 31 232.088 61.8428 155.616 111.656C79.1345 161.475 32 230.183 32 305.93C32 381.677 79.1345 450.385 155.616 500.204C232.088 550.018 337.792 580.86 454.601 580.86C571.41 580.86 677.115 550.018 753.587 500.204C830.068 450.385 877.203 381.677 877.203 305.93C877.203 230.183 830.068 161.475 753.587 111.656ZM878.203 305.93C878.203 153.538 688.55 30 454.601 30C220.653 30 31 153.538 31 305.93C31 458.322 220.653 581.86 454.601 581.86C688.55 581.86 878.203 458.322 878.203 305.93Z" fill="#2E2D37"/>
<path fill-rule="evenodd" clip-rule="evenodd" d="M722.587 81.656C646.115 31.8428 540.41 1 423.601 1C306.792 0.999999 201.088 31.8428 124.616 81.656C48.1345 131.475 1 200.183 1 275.93C0.999999 351.677 48.1345 420.385 124.616 470.204C201.088 520.018 306.792 550.86 423.601 550.86C540.41 550.86 646.115 520.018 722.587 470.204C799.068 420.385 846.203 351.677 846.203 275.93C846.203 200.183 799.068 131.475 722.587 81.656ZM847.203 275.93C847.203 123.538 657.55 2.78981e-06 423.601 0C189.653 -2.78981e-06 1.81726e-06 123.538 0 275.93C-1.81726e-06 428.322 189.653 551.86 423.601 551.86C657.55 551.86 847.203 428.322 847.203 275.93Z" fill="#2E2D37"/>
</g>
</svg>
